<?xml version="1.0" standalone="no"?>
<!DOCTYPE svg PUBLIC "-//W3C//DTD SVG 20010904//EN"
 "http://www.w3.org/TR/2001/REC-SVG-20010904/DTD/svg10.dtd">
<svg version="1.0" xmlns="http://www.w3.org/2000/svg"
 width="180.000000pt" height="180.000000pt" viewBox="0 0 180.000000 180.000000"
 preserveAspectRatio="xMidYMid meet">
<metadata>
Created by potrace 1.10, written by Peter Selinger 2001-2011
</metadata>
<g transform="translate(0.000000,180.000000) scale(0.100000,-0.100000)"
fill="#000000" stroke="none">
<path d="M834 1592 c-108 -59 -184 -186 -184 -307 0 -34 34 -175 43 -175 1 0
3 44 3 98 1 72 7 114 23 162 26 75 90 179 133 215 34 29 27 32 -18 7z"/>
<path d="M950 1541 c-32 -10 -54 -23 -52 -30 1 -7 -2 -10 -8 -6 -6 4 -26 -5
-45 -19 -78 -60 -117 -183 -91 -286 13 -50 14 -52 15 -20 2 48 25 130 52 187
27 57 110 142 165 171 48 26 37 26 -36 3z"/>
<path d="M1100 1536 c-97 -21 -174 -74 -225 -155 -27 -44 -55 -132 -55 -175 0
-27 4 -23 31 34 40 86 92 153 157 201 57 43 146 89 174 89 9 0 20 5 23 10 8
13 -36 12 -105 -4z"/>
<path d="M640 1484 c-106 -115 -111 -262 -14 -389 35 -47 47 -44 23 5 -48 99
-50 238 -4 338 14 31 33 64 42 74 9 10 11 18 6 18 -6 0 -29 -21 -53 -46z"/>
<path d="M511 1468 c-17 -29 -36 -71 -42 -93 -16 -57 -6 -171 19 -228 21 -47
116 -157 135 -157 6 0 1 10 -11 23 -34 37 -80 144 -92 220 -14 78 -7 175 15
240 20 59 11 57 -24 -5z"/>
<path d="M1081 1432 c-84 -33 -156 -123 -176 -222 -7 -32 -4 -30 37 30 73 107
204 181 324 183 77 1 32 19 -58 23 -63 3 -94 0 -127 -14z"/>
<path d="M1207 1380 c-91 -23 -185 -93 -231 -170 l-19 -33 54 43 c109 86 236
127 362 117 40 -3 81 -9 92 -13 46 -16 -3 16 -54 36 -63 24 -151 33 -204 20z"/>
<path d="M396 1302 c-20 -74 -20 -116 1 -181 19 -61 69 -122 126 -155 82 -47
90 -40 28 21 -92 92 -138 205 -130 321 2 29 1 52 -2 52 -4 0 -14 -26 -23 -58z"/>
<path d="M1215 1281 c-16 -4 -45 -15 -63 -25 -35 -18 -112 -84 -112 -95 0 -4
32 9 71 28 64 32 82 36 169 39 86 4 104 1 160 -22 35 -14 66 -24 68 -22 2 2
-18 20 -44 40 -73 56 -165 77 -249 57z"/>
<path d="M292 1188 c4 -76 9 -103 31 -145 51 -98 150 -172 252 -188 l40 -6
-45 22 c-25 13 -77 54 -115 93 -78 79 -126 164 -145 259 -6 31 -14 57 -17 57
-3 0 -3 -42 -1 -92z"/>
<path d="M1252 1189 c-46 -6 -169 -56 -160 -64 2 -2 21 0 43 5 64 15 206 12
266 -6 68 -20 137 -55 178 -89 41 -35 39 -22 -5 32 -78 95 -195 139 -322 122z"/>
<path d="M1198 1085 c-68 -22 -65 -30 8 -27 123 7 254 -53 332 -150 34 -42 35
-42 28 -13 -15 63 -81 141 -151 177 -52 27 -154 33 -217 13z"/>
<path d="M264 1031 c11 -108 92 -204 198 -236 56 -16 121 -19 153 -5 18 8 18
9 -6 9 -41 1 -135 37 -183 70 -56 39 -108 100 -142 165 l-26 51 6 -54z"/>
<path d="M1247 986 c133 -43 244 -137 308 -259 37 -72 44 -66 21 21 -43 159
-175 263 -334 262 l-67 -1 72 -23z"/>
<path d="M181 947 c-2 -23 55 -121 91 -157 84 -84 193 -119 308 -100 88 15 99
30 23 30 -75 0 -161 23 -233 61 -59 31 -143 104 -172 149 -10 14 -17 21 -17
17z"/>
<path d="M1250 899 c115 -58 195 -161 224 -287 l13 -57 7 46 c7 45 -7 136 -26
172 -39 76 -143 144 -231 154 l-52 5 65 -33z"/>
<path d="M1256 809 c102 -107 164 -269 150 -394 l-5 -50 17 35 c12 25 17 62
17 135 0 86 -3 107 -24 150 -32 64 -95 127 -163 161 l-53 27 61 -64z"/>
<path d="M1203 746 c59 -78 81 -146 81 -256 0 -68 -5 -106 -17 -134 -24 -55 2
-30 39 36 25 46 29 63 29 133 0 57 -5 90 -18 116 -25 50 -78 110 -118 133
l-32 19 36 -47z"/>
<path d="M248 744 c24 -44 83 -101 128 -124 69 -35 188 -35 254 -1 52 28 107
69 75 56 -148 -57 -303 -38 -420 52 -30 22 -43 29 -37 17z"/>
<path d="M1155 715 c60 -172 48 -355 -30 -470 -39 -57 -24 -52 34 10 93 103
116 254 58 376 -27 57 -75 122 -62 84z"/>
<path d="M1095 657 c22 -115 13 -196 -35 -293 -16 -34 -48 -79 -70 -100 -21
-21 -37 -40 -35 -42 8 -8 96 52 126 86 50 56 69 108 69 187 0 58 -5 80 -30
130 -18 35 -28 49 -25 32z"/>
<path d="M1040 610 c-1 -132 -104 -305 -226 -383 -35 -22 -62 -42 -61 -44 6
-6 119 36 152 57 45 28 89 80 122 143 21 41 27 70 31 138 3 52 0 94 -7 105 -9
16 -10 14 -11 -16z"/>
<path d="M728 604 c-68 -35 -151 -54 -238 -54 -81 0 -180 21 -218 46 -13 9
-26 14 -28 11 -9 -9 61 -60 116 -86 46 -21 69 -26 140 -25 71 0 94 5 141 27
47 23 157 106 139 106 -3 0 -26 -11 -52 -25z"/>
<path d="M785 567 c-93 -92 -270 -138 -393 -101 -9 3 6 -7 33 -22 75 -40 174
-45 246 -12 63 30 108 72 143 134 30 53 24 54 -29 1z"/>
<path d="M960 591 c0 -37 -48 -129 -91 -176 -55 -59 -115 -101 -182 -126 l-52
-19 65 4 c36 3 82 12 103 21 56 23 122 88 145 143 25 58 39 157 23 166 -7 4
-11 -1 -11 -13z"/>
<path d="M881 556 c-84 -122 -255 -215 -396 -216 -43 -1 -47 -2 -30 -12 11 -7
59 -12 110 -12 72 0 100 4 138 22 68 30 120 74 156 130 28 44 66 132 56 132
-2 0 -18 -20 -34 -44z"/>
</g>
</svg>
